<mxfile host="app.diagrams.net" modified="2022-06-27T08:10:14.257Z" agent="5.0 (Macintosh; Intel Mac OS X 10_15_7) AppleWebKit/537.36 (KHTML, like Gecko) Chrome/102.0.0.0 Safari/537.36" etag="JQiadKELY3tQTxSCGzZL" version="18.2.0" type="github">
  <diagram id="IhSgiC-EaO-bpMqk408K" name="Page-1">
    <mxGraphModel dx="2226" dy="1116" grid="1" gridSize="10" guides="1" tooltips="1" connect="1" arrows="1" fold="1" page="0" pageScale="1" pageWidth="827" pageHeight="1169" math="0" shadow="0">
      <root>
        <mxCell id="0" />
        <mxCell id="1" parent="0" />
        <mxCell id="Vv4WrIztTl1SW7AeAIIx-14" value="作品链信息" style="shape=table;startSize=30;container=1;collapsible=0;childLayout=tableLayout;fontStyle=1;align=center;" vertex="1" parent="1">
          <mxGeometry x="-320" y="-200" width="742" height="190" as="geometry" />
        </mxCell>
        <mxCell id="Vv4WrIztTl1SW7AeAIIx-35" style="shape=tableRow;horizontal=0;startSize=0;swimlaneHead=0;swimlaneBody=0;top=0;left=0;bottom=0;right=0;collapsible=0;dropTarget=0;fillColor=none;points=[[0,0.5],[1,0.5]];portConstraint=eastwest;" vertex="1" parent="Vv4WrIztTl1SW7AeAIIx-14">
          <mxGeometry y="30" width="742" height="40" as="geometry" />
        </mxCell>
        <mxCell id="Vv4WrIztTl1SW7AeAIIx-36" value="作品" style="shape=partialRectangle;html=1;whiteSpace=wrap;connectable=0;fillColor=none;top=0;left=0;bottom=0;right=0;overflow=hidden;" vertex="1" parent="Vv4WrIztTl1SW7AeAIIx-35">
          <mxGeometry width="106" height="40" as="geometry">
            <mxRectangle width="106" height="40" as="alternateBounds" />
          </mxGeometry>
        </mxCell>
        <mxCell id="Vv4WrIztTl1SW7AeAIIx-37" value="标准" style="shape=partialRectangle;html=1;whiteSpace=wrap;connectable=0;fillColor=none;top=0;left=0;bottom=0;right=0;overflow=hidden;" vertex="1" parent="Vv4WrIztTl1SW7AeAIIx-35">
          <mxGeometry x="106" width="106" height="40" as="geometry">
            <mxRectangle width="106" height="40" as="alternateBounds" />
          </mxGeometry>
        </mxCell>
        <mxCell id="Vv4WrIztTl1SW7AeAIIx-38" value="合约地址" style="shape=partialRectangle;html=1;whiteSpace=wrap;connectable=0;fillColor=none;top=0;left=0;bottom=0;right=0;overflow=hidden;" vertex="1" parent="Vv4WrIztTl1SW7AeAIIx-35">
          <mxGeometry x="212" width="106" height="40" as="geometry">
            <mxRectangle width="106" height="40" as="alternateBounds" />
          </mxGeometry>
        </mxCell>
        <mxCell id="Vv4WrIztTl1SW7AeAIIx-39" value="Meta信息" style="shape=partialRectangle;html=1;whiteSpace=wrap;connectable=0;fillColor=none;top=0;left=0;bottom=0;right=0;overflow=hidden;" vertex="1" parent="Vv4WrIztTl1SW7AeAIIx-35">
          <mxGeometry x="318" width="106" height="40" as="geometry">
            <mxRectangle width="106" height="40" as="alternateBounds" />
          </mxGeometry>
        </mxCell>
        <mxCell id="Vv4WrIztTl1SW7AeAIIx-43" value="链平台" style="shape=partialRectangle;html=1;whiteSpace=wrap;connectable=0;fillColor=none;top=0;left=0;bottom=0;right=0;overflow=hidden;" vertex="1" parent="Vv4WrIztTl1SW7AeAIIx-35">
          <mxGeometry x="424" width="106" height="40" as="geometry">
            <mxRectangle width="106" height="40" as="alternateBounds" />
          </mxGeometry>
        </mxCell>
        <mxCell id="Vv4WrIztTl1SW7AeAIIx-51" value="TokenID" style="shape=partialRectangle;html=1;whiteSpace=wrap;connectable=0;fillColor=none;top=0;left=0;bottom=0;right=0;overflow=hidden;" vertex="1" parent="Vv4WrIztTl1SW7AeAIIx-35">
          <mxGeometry x="530" width="106" height="40" as="geometry">
            <mxRectangle width="106" height="40" as="alternateBounds" />
          </mxGeometry>
        </mxCell>
        <mxCell id="Vv4WrIztTl1SW7AeAIIx-84" value="数量" style="shape=partialRectangle;html=1;whiteSpace=wrap;connectable=0;fillColor=none;top=0;left=0;bottom=0;right=0;overflow=hidden;" vertex="1" parent="Vv4WrIztTl1SW7AeAIIx-35">
          <mxGeometry x="636" width="106" height="40" as="geometry">
            <mxRectangle width="106" height="40" as="alternateBounds" />
          </mxGeometry>
        </mxCell>
        <mxCell id="Vv4WrIztTl1SW7AeAIIx-15" value="" style="shape=tableRow;horizontal=0;startSize=0;swimlaneHead=0;swimlaneBody=0;top=0;left=0;bottom=0;right=0;collapsible=0;dropTarget=0;fillColor=none;points=[[0,0.5],[1,0.5]];portConstraint=eastwest;" vertex="1" parent="Vv4WrIztTl1SW7AeAIIx-14">
          <mxGeometry y="70" width="742" height="40" as="geometry" />
        </mxCell>
        <mxCell id="Vv4WrIztTl1SW7AeAIIx-16" value="张三的歌" style="shape=partialRectangle;html=1;whiteSpace=wrap;connectable=0;fillColor=none;top=0;left=0;bottom=0;right=0;overflow=hidden;" vertex="1" parent="Vv4WrIztTl1SW7AeAIIx-15">
          <mxGeometry width="106" height="40" as="geometry">
            <mxRectangle width="106" height="40" as="alternateBounds" />
          </mxGeometry>
        </mxCell>
        <mxCell id="Vv4WrIztTl1SW7AeAIIx-17" value="ERC721" style="shape=partialRectangle;html=1;whiteSpace=wrap;connectable=0;fillColor=none;top=0;left=0;bottom=0;right=0;overflow=hidden;" vertex="1" parent="Vv4WrIztTl1SW7AeAIIx-15">
          <mxGeometry x="106" width="106" height="40" as="geometry">
            <mxRectangle width="106" height="40" as="alternateBounds" />
          </mxGeometry>
        </mxCell>
        <mxCell id="Vv4WrIztTl1SW7AeAIIx-18" value="0x00001" style="shape=partialRectangle;html=1;whiteSpace=wrap;connectable=0;fillColor=none;top=0;left=0;bottom=0;right=0;overflow=hidden;" vertex="1" parent="Vv4WrIztTl1SW7AeAIIx-15">
          <mxGeometry x="212" width="106" height="40" as="geometry">
            <mxRectangle width="106" height="40" as="alternateBounds" />
          </mxGeometry>
        </mxCell>
        <mxCell id="Vv4WrIztTl1SW7AeAIIx-40" value="https://abc.json" style="shape=partialRectangle;html=1;whiteSpace=wrap;connectable=0;fillColor=none;top=0;left=0;bottom=0;right=0;overflow=hidden;" vertex="1" parent="Vv4WrIztTl1SW7AeAIIx-15">
          <mxGeometry x="318" width="106" height="40" as="geometry">
            <mxRectangle width="106" height="40" as="alternateBounds" />
          </mxGeometry>
        </mxCell>
        <mxCell id="Vv4WrIztTl1SW7AeAIIx-44" value="Wom链001" style="shape=partialRectangle;html=1;whiteSpace=wrap;connectable=0;fillColor=none;top=0;left=0;bottom=0;right=0;overflow=hidden;" vertex="1" parent="Vv4WrIztTl1SW7AeAIIx-15">
          <mxGeometry x="424" width="106" height="40" as="geometry">
            <mxRectangle width="106" height="40" as="alternateBounds" />
          </mxGeometry>
        </mxCell>
        <mxCell id="Vv4WrIztTl1SW7AeAIIx-52" value="M001" style="shape=partialRectangle;html=1;whiteSpace=wrap;connectable=0;fillColor=none;top=0;left=0;bottom=0;right=0;overflow=hidden;" vertex="1" parent="Vv4WrIztTl1SW7AeAIIx-15">
          <mxGeometry x="530" width="106" height="40" as="geometry">
            <mxRectangle width="106" height="40" as="alternateBounds" />
          </mxGeometry>
        </mxCell>
        <mxCell id="Vv4WrIztTl1SW7AeAIIx-85" value="1000" style="shape=partialRectangle;html=1;whiteSpace=wrap;connectable=0;fillColor=none;top=0;left=0;bottom=0;right=0;overflow=hidden;" vertex="1" parent="Vv4WrIztTl1SW7AeAIIx-15">
          <mxGeometry x="636" width="106" height="40" as="geometry">
            <mxRectangle width="106" height="40" as="alternateBounds" />
          </mxGeometry>
        </mxCell>
        <mxCell id="Vv4WrIztTl1SW7AeAIIx-19" value="" style="shape=tableRow;horizontal=0;startSize=0;swimlaneHead=0;swimlaneBody=0;top=0;left=0;bottom=0;right=0;collapsible=0;dropTarget=0;fillColor=none;points=[[0,0.5],[1,0.5]];portConstraint=eastwest;" vertex="1" parent="Vv4WrIztTl1SW7AeAIIx-14">
          <mxGeometry y="110" width="742" height="40" as="geometry" />
        </mxCell>
        <mxCell id="Vv4WrIztTl1SW7AeAIIx-20" value="张三的形象" style="shape=partialRectangle;html=1;whiteSpace=wrap;connectable=0;fillColor=none;top=0;left=0;bottom=0;right=0;overflow=hidden;" vertex="1" parent="Vv4WrIztTl1SW7AeAIIx-19">
          <mxGeometry width="106" height="40" as="geometry">
            <mxRectangle width="106" height="40" as="alternateBounds" />
          </mxGeometry>
        </mxCell>
        <mxCell id="Vv4WrIztTl1SW7AeAIIx-21" value="ERC1155" style="shape=partialRectangle;html=1;whiteSpace=wrap;connectable=0;fillColor=none;top=0;left=0;bottom=0;right=0;overflow=hidden;" vertex="1" parent="Vv4WrIztTl1SW7AeAIIx-19">
          <mxGeometry x="106" width="106" height="40" as="geometry">
            <mxRectangle width="106" height="40" as="alternateBounds" />
          </mxGeometry>
        </mxCell>
        <mxCell id="Vv4WrIztTl1SW7AeAIIx-22" value="0x00002" style="shape=partialRectangle;html=1;whiteSpace=wrap;connectable=0;fillColor=none;top=0;left=0;bottom=0;right=0;overflow=hidden;" vertex="1" parent="Vv4WrIztTl1SW7AeAIIx-19">
          <mxGeometry x="212" width="106" height="40" as="geometry">
            <mxRectangle width="106" height="40" as="alternateBounds" />
          </mxGeometry>
        </mxCell>
        <mxCell id="Vv4WrIztTl1SW7AeAIIx-41" value="https://cde-1.json" style="shape=partialRectangle;html=1;whiteSpace=wrap;connectable=0;fillColor=none;top=0;left=0;bottom=0;right=0;overflow=hidden;" vertex="1" parent="Vv4WrIztTl1SW7AeAIIx-19">
          <mxGeometry x="318" width="106" height="40" as="geometry">
            <mxRectangle width="106" height="40" as="alternateBounds" />
          </mxGeometry>
        </mxCell>
        <mxCell id="Vv4WrIztTl1SW7AeAIIx-45" value="&lt;span style=&quot;&quot;&gt;Wom链001&lt;/span&gt;" style="shape=partialRectangle;html=1;whiteSpace=wrap;connectable=0;fillColor=none;top=0;left=0;bottom=0;right=0;overflow=hidden;" vertex="1" parent="Vv4WrIztTl1SW7AeAIIx-19">
          <mxGeometry x="424" width="106" height="40" as="geometry">
            <mxRectangle width="106" height="40" as="alternateBounds" />
          </mxGeometry>
        </mxCell>
        <mxCell id="Vv4WrIztTl1SW7AeAIIx-53" value="A001" style="shape=partialRectangle;html=1;whiteSpace=wrap;connectable=0;fillColor=none;top=0;left=0;bottom=0;right=0;overflow=hidden;" vertex="1" parent="Vv4WrIztTl1SW7AeAIIx-19">
          <mxGeometry x="530" width="106" height="40" as="geometry">
            <mxRectangle width="106" height="40" as="alternateBounds" />
          </mxGeometry>
        </mxCell>
        <mxCell id="Vv4WrIztTl1SW7AeAIIx-86" value="1" style="shape=partialRectangle;html=1;whiteSpace=wrap;connectable=0;fillColor=none;top=0;left=0;bottom=0;right=0;overflow=hidden;" vertex="1" parent="Vv4WrIztTl1SW7AeAIIx-19">
          <mxGeometry x="636" width="106" height="40" as="geometry">
            <mxRectangle width="106" height="40" as="alternateBounds" />
          </mxGeometry>
        </mxCell>
        <mxCell id="Vv4WrIztTl1SW7AeAIIx-23" value="" style="shape=tableRow;horizontal=0;startSize=0;swimlaneHead=0;swimlaneBody=0;top=0;left=0;bottom=0;right=0;collapsible=0;dropTarget=0;fillColor=none;points=[[0,0.5],[1,0.5]];portConstraint=eastwest;" vertex="1" parent="Vv4WrIztTl1SW7AeAIIx-14">
          <mxGeometry y="150" width="742" height="40" as="geometry" />
        </mxCell>
        <mxCell id="Vv4WrIztTl1SW7AeAIIx-24" value="&lt;span style=&quot;&quot;&gt;张三的形象&lt;/span&gt;" style="shape=partialRectangle;html=1;whiteSpace=wrap;connectable=0;fillColor=none;top=0;left=0;bottom=0;right=0;overflow=hidden;" vertex="1" parent="Vv4WrIztTl1SW7AeAIIx-23">
          <mxGeometry width="106" height="40" as="geometry">
            <mxRectangle width="106" height="40" as="alternateBounds" />
          </mxGeometry>
        </mxCell>
        <mxCell id="Vv4WrIztTl1SW7AeAIIx-25" value="&lt;span style=&quot;&quot;&gt;ERC1155&lt;/span&gt;" style="shape=partialRectangle;html=1;whiteSpace=wrap;connectable=0;fillColor=none;top=0;left=0;bottom=0;right=0;overflow=hidden;" vertex="1" parent="Vv4WrIztTl1SW7AeAIIx-23">
          <mxGeometry x="106" width="106" height="40" as="geometry">
            <mxRectangle width="106" height="40" as="alternateBounds" />
          </mxGeometry>
        </mxCell>
        <mxCell id="Vv4WrIztTl1SW7AeAIIx-26" value="&lt;span style=&quot;&quot;&gt;0x00002&lt;/span&gt;" style="shape=partialRectangle;html=1;whiteSpace=wrap;connectable=0;fillColor=none;top=0;left=0;bottom=0;right=0;overflow=hidden;" vertex="1" parent="Vv4WrIztTl1SW7AeAIIx-23">
          <mxGeometry x="212" width="106" height="40" as="geometry">
            <mxRectangle width="106" height="40" as="alternateBounds" />
          </mxGeometry>
        </mxCell>
        <mxCell id="Vv4WrIztTl1SW7AeAIIx-42" value="&lt;span style=&quot;&quot;&gt;https://cde-2.json&lt;/span&gt;" style="shape=partialRectangle;html=1;whiteSpace=wrap;connectable=0;fillColor=none;top=0;left=0;bottom=0;right=0;overflow=hidden;" vertex="1" parent="Vv4WrIztTl1SW7AeAIIx-23">
          <mxGeometry x="318" width="106" height="40" as="geometry">
            <mxRectangle width="106" height="40" as="alternateBounds" />
          </mxGeometry>
        </mxCell>
        <mxCell id="Vv4WrIztTl1SW7AeAIIx-46" value="&lt;span style=&quot;&quot;&gt;Wom链001&lt;/span&gt;" style="shape=partialRectangle;html=1;whiteSpace=wrap;connectable=0;fillColor=none;top=0;left=0;bottom=0;right=0;overflow=hidden;" vertex="1" parent="Vv4WrIztTl1SW7AeAIIx-23">
          <mxGeometry x="424" width="106" height="40" as="geometry">
            <mxRectangle width="106" height="40" as="alternateBounds" />
          </mxGeometry>
        </mxCell>
        <mxCell id="Vv4WrIztTl1SW7AeAIIx-54" value="A002" style="shape=partialRectangle;html=1;whiteSpace=wrap;connectable=0;fillColor=none;top=0;left=0;bottom=0;right=0;overflow=hidden;" vertex="1" parent="Vv4WrIztTl1SW7AeAIIx-23">
          <mxGeometry x="530" width="106" height="40" as="geometry">
            <mxRectangle width="106" height="40" as="alternateBounds" />
          </mxGeometry>
        </mxCell>
        <mxCell id="Vv4WrIztTl1SW7AeAIIx-87" value="1" style="shape=partialRectangle;html=1;whiteSpace=wrap;connectable=0;fillColor=none;top=0;left=0;bottom=0;right=0;overflow=hidden;" vertex="1" parent="Vv4WrIztTl1SW7AeAIIx-23">
          <mxGeometry x="636" width="106" height="40" as="geometry">
            <mxRectangle width="106" height="40" as="alternateBounds" />
          </mxGeometry>
        </mxCell>
        <mxCell id="Vv4WrIztTl1SW7AeAIIx-55" value="买家信息" style="shape=table;startSize=30;container=1;collapsible=0;childLayout=tableLayout;fontStyle=1;align=center;" vertex="1" parent="1">
          <mxGeometry x="-410" y="40" width="530" height="270" as="geometry" />
        </mxCell>
        <mxCell id="Vv4WrIztTl1SW7AeAIIx-56" style="shape=tableRow;horizontal=0;startSize=0;swimlaneHead=0;swimlaneBody=0;top=0;left=0;bottom=0;right=0;collapsible=0;dropTarget=0;fillColor=none;points=[[0,0.5],[1,0.5]];portConstraint=eastwest;" vertex="1" parent="Vv4WrIztTl1SW7AeAIIx-55">
          <mxGeometry y="30" width="530" height="40" as="geometry" />
        </mxCell>
        <mxCell id="Vv4WrIztTl1SW7AeAIIx-57" value="买家" style="shape=partialRectangle;html=1;whiteSpace=wrap;connectable=0;fillColor=none;top=0;left=0;bottom=0;right=0;overflow=hidden;" vertex="1" parent="Vv4WrIztTl1SW7AeAIIx-56">
          <mxGeometry width="106" height="40" as="geometry">
            <mxRectangle width="106" height="40" as="alternateBounds" />
          </mxGeometry>
        </mxCell>
        <mxCell id="Vv4WrIztTl1SW7AeAIIx-58" value="TokenID" style="shape=partialRectangle;html=1;whiteSpace=wrap;connectable=0;fillColor=none;top=0;left=0;bottom=0;right=0;overflow=hidden;" vertex="1" parent="Vv4WrIztTl1SW7AeAIIx-56">
          <mxGeometry x="106" width="106" height="40" as="geometry">
            <mxRectangle width="106" height="40" as="alternateBounds" />
          </mxGeometry>
        </mxCell>
        <mxCell id="Vv4WrIztTl1SW7AeAIIx-59" value="数量" style="shape=partialRectangle;html=1;whiteSpace=wrap;connectable=0;fillColor=none;top=0;left=0;bottom=0;right=0;overflow=hidden;" vertex="1" parent="Vv4WrIztTl1SW7AeAIIx-56">
          <mxGeometry x="212" width="106" height="40" as="geometry">
            <mxRectangle width="106" height="40" as="alternateBounds" />
          </mxGeometry>
        </mxCell>
        <mxCell id="Vv4WrIztTl1SW7AeAIIx-60" value="持有时间" style="shape=partialRectangle;html=1;whiteSpace=wrap;connectable=0;fillColor=none;top=0;left=0;bottom=0;right=0;overflow=hidden;" vertex="1" parent="Vv4WrIztTl1SW7AeAIIx-56">
          <mxGeometry x="318" width="106" height="40" as="geometry">
            <mxRectangle width="106" height="40" as="alternateBounds" />
          </mxGeometry>
        </mxCell>
        <mxCell id="Vv4WrIztTl1SW7AeAIIx-61" value="作品" style="shape=partialRectangle;html=1;whiteSpace=wrap;connectable=0;fillColor=none;top=0;left=0;bottom=0;right=0;overflow=hidden;" vertex="1" parent="Vv4WrIztTl1SW7AeAIIx-56">
          <mxGeometry x="424" width="106" height="40" as="geometry">
            <mxRectangle width="106" height="40" as="alternateBounds" />
          </mxGeometry>
        </mxCell>
        <mxCell id="Vv4WrIztTl1SW7AeAIIx-63" value="" style="shape=tableRow;horizontal=0;startSize=0;swimlaneHead=0;swimlaneBody=0;top=0;left=0;bottom=0;right=0;collapsible=0;dropTarget=0;fillColor=none;points=[[0,0.5],[1,0.5]];portConstraint=eastwest;" vertex="1" parent="Vv4WrIztTl1SW7AeAIIx-55">
          <mxGeometry y="70" width="530" height="40" as="geometry" />
        </mxCell>
        <mxCell id="Vv4WrIztTl1SW7AeAIIx-64" value="张三" style="shape=partialRectangle;html=1;whiteSpace=wrap;connectable=0;fillColor=none;top=0;left=0;bottom=0;right=0;overflow=hidden;" vertex="1" parent="Vv4WrIztTl1SW7AeAIIx-63">
          <mxGeometry width="106" height="40" as="geometry">
            <mxRectangle width="106" height="40" as="alternateBounds" />
          </mxGeometry>
        </mxCell>
        <mxCell id="Vv4WrIztTl1SW7AeAIIx-65" value="M001" style="shape=partialRectangle;html=1;whiteSpace=wrap;connectable=0;fillColor=none;top=0;left=0;bottom=0;right=0;overflow=hidden;" vertex="1" parent="Vv4WrIztTl1SW7AeAIIx-63">
          <mxGeometry x="106" width="106" height="40" as="geometry">
            <mxRectangle width="106" height="40" as="alternateBounds" />
          </mxGeometry>
        </mxCell>
        <mxCell id="Vv4WrIztTl1SW7AeAIIx-66" value="10" style="shape=partialRectangle;html=1;whiteSpace=wrap;connectable=0;fillColor=none;top=0;left=0;bottom=0;right=0;overflow=hidden;" vertex="1" parent="Vv4WrIztTl1SW7AeAIIx-63">
          <mxGeometry x="212" width="106" height="40" as="geometry">
            <mxRectangle width="106" height="40" as="alternateBounds" />
          </mxGeometry>
        </mxCell>
        <mxCell id="Vv4WrIztTl1SW7AeAIIx-67" value="2022/03/01" style="shape=partialRectangle;html=1;whiteSpace=wrap;connectable=0;fillColor=none;top=0;left=0;bottom=0;right=0;overflow=hidden;" vertex="1" parent="Vv4WrIztTl1SW7AeAIIx-63">
          <mxGeometry x="318" width="106" height="40" as="geometry">
            <mxRectangle width="106" height="40" as="alternateBounds" />
          </mxGeometry>
        </mxCell>
        <mxCell id="Vv4WrIztTl1SW7AeAIIx-68" value="张三的歌" style="shape=partialRectangle;html=1;whiteSpace=wrap;connectable=0;fillColor=none;top=0;left=0;bottom=0;right=0;overflow=hidden;" vertex="1" parent="Vv4WrIztTl1SW7AeAIIx-63">
          <mxGeometry x="424" width="106" height="40" as="geometry">
            <mxRectangle width="106" height="40" as="alternateBounds" />
          </mxGeometry>
        </mxCell>
        <mxCell id="Vv4WrIztTl1SW7AeAIIx-70" value="" style="shape=tableRow;horizontal=0;startSize=0;swimlaneHead=0;swimlaneBody=0;top=0;left=0;bottom=0;right=0;collapsible=0;dropTarget=0;fillColor=none;points=[[0,0.5],[1,0.5]];portConstraint=eastwest;" vertex="1" parent="Vv4WrIztTl1SW7AeAIIx-55">
          <mxGeometry y="110" width="530" height="40" as="geometry" />
        </mxCell>
        <mxCell id="Vv4WrIztTl1SW7AeAIIx-71" value="李四" style="shape=partialRectangle;html=1;whiteSpace=wrap;connectable=0;fillColor=none;top=0;left=0;bottom=0;right=0;overflow=hidden;" vertex="1" parent="Vv4WrIztTl1SW7AeAIIx-70">
          <mxGeometry width="106" height="40" as="geometry">
            <mxRectangle width="106" height="40" as="alternateBounds" />
          </mxGeometry>
        </mxCell>
        <mxCell id="Vv4WrIztTl1SW7AeAIIx-72" value="A001" style="shape=partialRectangle;html=1;whiteSpace=wrap;connectable=0;fillColor=none;top=0;left=0;bottom=0;right=0;overflow=hidden;" vertex="1" parent="Vv4WrIztTl1SW7AeAIIx-70">
          <mxGeometry x="106" width="106" height="40" as="geometry">
            <mxRectangle width="106" height="40" as="alternateBounds" />
          </mxGeometry>
        </mxCell>
        <mxCell id="Vv4WrIztTl1SW7AeAIIx-73" value="1" style="shape=partialRectangle;html=1;whiteSpace=wrap;connectable=0;fillColor=none;top=0;left=0;bottom=0;right=0;overflow=hidden;" vertex="1" parent="Vv4WrIztTl1SW7AeAIIx-70">
          <mxGeometry x="212" width="106" height="40" as="geometry">
            <mxRectangle width="106" height="40" as="alternateBounds" />
          </mxGeometry>
        </mxCell>
        <mxCell id="Vv4WrIztTl1SW7AeAIIx-74" value="2022/02/01" style="shape=partialRectangle;html=1;whiteSpace=wrap;connectable=0;fillColor=none;top=0;left=0;bottom=0;right=0;overflow=hidden;" vertex="1" parent="Vv4WrIztTl1SW7AeAIIx-70">
          <mxGeometry x="318" width="106" height="40" as="geometry">
            <mxRectangle width="106" height="40" as="alternateBounds" />
          </mxGeometry>
        </mxCell>
        <mxCell id="Vv4WrIztTl1SW7AeAIIx-75" value="张三的形象" style="shape=partialRectangle;html=1;whiteSpace=wrap;connectable=0;fillColor=none;top=0;left=0;bottom=0;right=0;overflow=hidden;" vertex="1" parent="Vv4WrIztTl1SW7AeAIIx-70">
          <mxGeometry x="424" width="106" height="40" as="geometry">
            <mxRectangle width="106" height="40" as="alternateBounds" />
          </mxGeometry>
        </mxCell>
        <mxCell id="Vv4WrIztTl1SW7AeAIIx-77" value="" style="shape=tableRow;horizontal=0;startSize=0;swimlaneHead=0;swimlaneBody=0;top=0;left=0;bottom=0;right=0;collapsible=0;dropTarget=0;fillColor=none;points=[[0,0.5],[1,0.5]];portConstraint=eastwest;" vertex="1" parent="Vv4WrIztTl1SW7AeAIIx-55">
          <mxGeometry y="150" width="530" height="40" as="geometry" />
        </mxCell>
        <mxCell id="Vv4WrIztTl1SW7AeAIIx-78" value="&lt;span style=&quot;&quot;&gt;王五&lt;/span&gt;" style="shape=partialRectangle;html=1;whiteSpace=wrap;connectable=0;fillColor=none;top=0;left=0;bottom=0;right=0;overflow=hidden;" vertex="1" parent="Vv4WrIztTl1SW7AeAIIx-77">
          <mxGeometry width="106" height="40" as="geometry">
            <mxRectangle width="106" height="40" as="alternateBounds" />
          </mxGeometry>
        </mxCell>
        <mxCell id="Vv4WrIztTl1SW7AeAIIx-79" value="A002" style="shape=partialRectangle;html=1;whiteSpace=wrap;connectable=0;fillColor=none;top=0;left=0;bottom=0;right=0;overflow=hidden;" vertex="1" parent="Vv4WrIztTl1SW7AeAIIx-77">
          <mxGeometry x="106" width="106" height="40" as="geometry">
            <mxRectangle width="106" height="40" as="alternateBounds" />
          </mxGeometry>
        </mxCell>
        <mxCell id="Vv4WrIztTl1SW7AeAIIx-80" value="&lt;span style=&quot;&quot;&gt;1&lt;/span&gt;" style="shape=partialRectangle;html=1;whiteSpace=wrap;connectable=0;fillColor=none;top=0;left=0;bottom=0;right=0;overflow=hidden;" vertex="1" parent="Vv4WrIztTl1SW7AeAIIx-77">
          <mxGeometry x="212" width="106" height="40" as="geometry">
            <mxRectangle width="106" height="40" as="alternateBounds" />
          </mxGeometry>
        </mxCell>
        <mxCell id="Vv4WrIztTl1SW7AeAIIx-81" value="2022/01/01" style="shape=partialRectangle;html=1;whiteSpace=wrap;connectable=0;fillColor=none;top=0;left=0;bottom=0;right=0;overflow=hidden;" vertex="1" parent="Vv4WrIztTl1SW7AeAIIx-77">
          <mxGeometry x="318" width="106" height="40" as="geometry">
            <mxRectangle width="106" height="40" as="alternateBounds" />
          </mxGeometry>
        </mxCell>
        <mxCell id="Vv4WrIztTl1SW7AeAIIx-82" value="张三的形象" style="shape=partialRectangle;html=1;whiteSpace=wrap;connectable=0;fillColor=none;top=0;left=0;bottom=0;right=0;overflow=hidden;" vertex="1" parent="Vv4WrIztTl1SW7AeAIIx-77">
          <mxGeometry x="424" width="106" height="40" as="geometry">
            <mxRectangle width="106" height="40" as="alternateBounds" />
          </mxGeometry>
        </mxCell>
        <mxCell id="Vv4WrIztTl1SW7AeAIIx-88" style="shape=tableRow;horizontal=0;startSize=0;swimlaneHead=0;swimlaneBody=0;top=0;left=0;bottom=0;right=0;collapsible=0;dropTarget=0;fillColor=none;points=[[0,0.5],[1,0.5]];portConstraint=eastwest;" vertex="1" parent="Vv4WrIztTl1SW7AeAIIx-55">
          <mxGeometry y="190" width="530" height="40" as="geometry" />
        </mxCell>
        <mxCell id="Vv4WrIztTl1SW7AeAIIx-89" value="小明" style="shape=partialRectangle;html=1;whiteSpace=wrap;connectable=0;fillColor=none;top=0;left=0;bottom=0;right=0;overflow=hidden;" vertex="1" parent="Vv4WrIztTl1SW7AeAIIx-88">
          <mxGeometry width="106" height="40" as="geometry">
            <mxRectangle width="106" height="40" as="alternateBounds" />
          </mxGeometry>
        </mxCell>
        <mxCell id="Vv4WrIztTl1SW7AeAIIx-90" value="A001" style="shape=partialRectangle;html=1;whiteSpace=wrap;connectable=0;fillColor=none;top=0;left=0;bottom=0;right=0;overflow=hidden;" vertex="1" parent="Vv4WrIztTl1SW7AeAIIx-88">
          <mxGeometry x="106" width="106" height="40" as="geometry">
            <mxRectangle width="106" height="40" as="alternateBounds" />
          </mxGeometry>
        </mxCell>
        <mxCell id="Vv4WrIztTl1SW7AeAIIx-91" value="0" style="shape=partialRectangle;html=1;whiteSpace=wrap;connectable=0;fillColor=none;top=0;left=0;bottom=0;right=0;overflow=hidden;" vertex="1" parent="Vv4WrIztTl1SW7AeAIIx-88">
          <mxGeometry x="212" width="106" height="40" as="geometry">
            <mxRectangle width="106" height="40" as="alternateBounds" />
          </mxGeometry>
        </mxCell>
        <mxCell id="Vv4WrIztTl1SW7AeAIIx-92" value="&lt;span style=&quot;&quot;&gt;2021/12/15&lt;/span&gt;" style="shape=partialRectangle;html=1;whiteSpace=wrap;connectable=0;fillColor=none;top=0;left=0;bottom=0;right=0;overflow=hidden;" vertex="1" parent="Vv4WrIztTl1SW7AeAIIx-88">
          <mxGeometry x="318" width="106" height="40" as="geometry">
            <mxRectangle width="106" height="40" as="alternateBounds" />
          </mxGeometry>
        </mxCell>
        <mxCell id="Vv4WrIztTl1SW7AeAIIx-93" value="&lt;span style=&quot;&quot;&gt;张三的形象&lt;/span&gt;" style="shape=partialRectangle;html=1;whiteSpace=wrap;connectable=0;fillColor=none;top=0;left=0;bottom=0;right=0;overflow=hidden;" vertex="1" parent="Vv4WrIztTl1SW7AeAIIx-88">
          <mxGeometry x="424" width="106" height="40" as="geometry">
            <mxRectangle width="106" height="40" as="alternateBounds" />
          </mxGeometry>
        </mxCell>
        <mxCell id="Vv4WrIztTl1SW7AeAIIx-95" style="shape=tableRow;horizontal=0;startSize=0;swimlaneHead=0;swimlaneBody=0;top=0;left=0;bottom=0;right=0;collapsible=0;dropTarget=0;fillColor=none;points=[[0,0.5],[1,0.5]];portConstraint=eastwest;" vertex="1" parent="Vv4WrIztTl1SW7AeAIIx-55">
          <mxGeometry y="230" width="530" height="40" as="geometry" />
        </mxCell>
        <mxCell id="Vv4WrIztTl1SW7AeAIIx-96" value="小文" style="shape=partialRectangle;html=1;whiteSpace=wrap;connectable=0;fillColor=none;top=0;left=0;bottom=0;right=0;overflow=hidden;" vertex="1" parent="Vv4WrIztTl1SW7AeAIIx-95">
          <mxGeometry width="106" height="40" as="geometry">
            <mxRectangle width="106" height="40" as="alternateBounds" />
          </mxGeometry>
        </mxCell>
        <mxCell id="Vv4WrIztTl1SW7AeAIIx-97" value="&lt;span style=&quot;&quot;&gt;A002&lt;/span&gt;" style="shape=partialRectangle;html=1;whiteSpace=wrap;connectable=0;fillColor=none;top=0;left=0;bottom=0;right=0;overflow=hidden;" vertex="1" parent="Vv4WrIztTl1SW7AeAIIx-95">
          <mxGeometry x="106" width="106" height="40" as="geometry">
            <mxRectangle width="106" height="40" as="alternateBounds" />
          </mxGeometry>
        </mxCell>
        <mxCell id="Vv4WrIztTl1SW7AeAIIx-98" value="0" style="shape=partialRectangle;html=1;whiteSpace=wrap;connectable=0;fillColor=none;top=0;left=0;bottom=0;right=0;overflow=hidden;" vertex="1" parent="Vv4WrIztTl1SW7AeAIIx-95">
          <mxGeometry x="212" width="106" height="40" as="geometry">
            <mxRectangle width="106" height="40" as="alternateBounds" />
          </mxGeometry>
        </mxCell>
        <mxCell id="Vv4WrIztTl1SW7AeAIIx-99" value="&lt;span style=&quot;&quot;&gt;2021/12/14&lt;/span&gt;" style="shape=partialRectangle;html=1;whiteSpace=wrap;connectable=0;fillColor=none;top=0;left=0;bottom=0;right=0;overflow=hidden;" vertex="1" parent="Vv4WrIztTl1SW7AeAIIx-95">
          <mxGeometry x="318" width="106" height="40" as="geometry">
            <mxRectangle width="106" height="40" as="alternateBounds" />
          </mxGeometry>
        </mxCell>
        <mxCell id="Vv4WrIztTl1SW7AeAIIx-100" value="&lt;span style=&quot;&quot;&gt;张三的形象&lt;/span&gt;" style="shape=partialRectangle;html=1;whiteSpace=wrap;connectable=0;fillColor=none;top=0;left=0;bottom=0;right=0;overflow=hidden;" vertex="1" parent="Vv4WrIztTl1SW7AeAIIx-95">
          <mxGeometry x="424" width="106" height="40" as="geometry">
            <mxRectangle width="106" height="40" as="alternateBounds" />
          </mxGeometry>
        </mxCell>
        <mxCell id="Vv4WrIztTl1SW7AeAIIx-114" value="二手卖家信息" style="shape=table;startSize=30;container=1;collapsible=0;childLayout=tableLayout;fontStyle=1;align=center;" vertex="1" parent="1">
          <mxGeometry x="-280" y="360" width="636" height="190" as="geometry" />
        </mxCell>
        <mxCell id="Vv4WrIztTl1SW7AeAIIx-115" style="shape=tableRow;horizontal=0;startSize=0;swimlaneHead=0;swimlaneBody=0;top=0;left=0;bottom=0;right=0;collapsible=0;dropTarget=0;fillColor=none;points=[[0,0.5],[1,0.5]];portConstraint=eastwest;" vertex="1" parent="Vv4WrIztTl1SW7AeAIIx-114">
          <mxGeometry y="30" width="636" height="40" as="geometry" />
        </mxCell>
        <mxCell id="Vv4WrIztTl1SW7AeAIIx-116" value="卖家" style="shape=partialRectangle;html=1;whiteSpace=wrap;connectable=0;fillColor=none;top=0;left=0;bottom=0;right=0;overflow=hidden;" vertex="1" parent="Vv4WrIztTl1SW7AeAIIx-115">
          <mxGeometry width="106" height="40" as="geometry">
            <mxRectangle width="106" height="40" as="alternateBounds" />
          </mxGeometry>
        </mxCell>
        <mxCell id="Vv4WrIztTl1SW7AeAIIx-117" value="TokenID" style="shape=partialRectangle;html=1;whiteSpace=wrap;connectable=0;fillColor=none;top=0;left=0;bottom=0;right=0;overflow=hidden;" vertex="1" parent="Vv4WrIztTl1SW7AeAIIx-115">
          <mxGeometry x="106" width="106" height="40" as="geometry">
            <mxRectangle width="106" height="40" as="alternateBounds" />
          </mxGeometry>
        </mxCell>
        <mxCell id="Vv4WrIztTl1SW7AeAIIx-118" value="数量" style="shape=partialRectangle;html=1;whiteSpace=wrap;connectable=0;fillColor=none;top=0;left=0;bottom=0;right=0;overflow=hidden;" vertex="1" parent="Vv4WrIztTl1SW7AeAIIx-115">
          <mxGeometry x="212" width="106" height="40" as="geometry">
            <mxRectangle width="106" height="40" as="alternateBounds" />
          </mxGeometry>
        </mxCell>
        <mxCell id="Vv4WrIztTl1SW7AeAIIx-119" value="价格" style="shape=partialRectangle;html=1;whiteSpace=wrap;connectable=0;fillColor=none;top=0;left=0;bottom=0;right=0;overflow=hidden;" vertex="1" parent="Vv4WrIztTl1SW7AeAIIx-115">
          <mxGeometry x="318" width="106" height="40" as="geometry">
            <mxRectangle width="106" height="40" as="alternateBounds" />
          </mxGeometry>
        </mxCell>
        <mxCell id="Vv4WrIztTl1SW7AeAIIx-120" value="原封面" style="shape=partialRectangle;html=1;whiteSpace=wrap;connectable=0;fillColor=none;top=0;left=0;bottom=0;right=0;overflow=hidden;" vertex="1" parent="Vv4WrIztTl1SW7AeAIIx-115">
          <mxGeometry x="424" width="106" height="40" as="geometry">
            <mxRectangle width="106" height="40" as="alternateBounds" />
          </mxGeometry>
        </mxCell>
        <mxCell id="Vv4WrIztTl1SW7AeAIIx-151" value="上传封面" style="shape=partialRectangle;html=1;whiteSpace=wrap;connectable=0;fillColor=none;top=0;left=0;bottom=0;right=0;overflow=hidden;" vertex="1" parent="Vv4WrIztTl1SW7AeAIIx-115">
          <mxGeometry x="530" width="106" height="40" as="geometry">
            <mxRectangle width="106" height="40" as="alternateBounds" />
          </mxGeometry>
        </mxCell>
        <mxCell id="Vv4WrIztTl1SW7AeAIIx-121" value="" style="shape=tableRow;horizontal=0;startSize=0;swimlaneHead=0;swimlaneBody=0;top=0;left=0;bottom=0;right=0;collapsible=0;dropTarget=0;fillColor=none;points=[[0,0.5],[1,0.5]];portConstraint=eastwest;" vertex="1" parent="Vv4WrIztTl1SW7AeAIIx-114">
          <mxGeometry y="70" width="636" height="40" as="geometry" />
        </mxCell>
        <mxCell id="Vv4WrIztTl1SW7AeAIIx-122" value="张三" style="shape=partialRectangle;html=1;whiteSpace=wrap;connectable=0;fillColor=none;top=0;left=0;bottom=0;right=0;overflow=hidden;" vertex="1" parent="Vv4WrIztTl1SW7AeAIIx-121">
          <mxGeometry width="106" height="40" as="geometry">
            <mxRectangle width="106" height="40" as="alternateBounds" />
          </mxGeometry>
        </mxCell>
        <mxCell id="Vv4WrIztTl1SW7AeAIIx-123" value="M001" style="shape=partialRectangle;html=1;whiteSpace=wrap;connectable=0;fillColor=none;top=0;left=0;bottom=0;right=0;overflow=hidden;" vertex="1" parent="Vv4WrIztTl1SW7AeAIIx-121">
          <mxGeometry x="106" width="106" height="40" as="geometry">
            <mxRectangle width="106" height="40" as="alternateBounds" />
          </mxGeometry>
        </mxCell>
        <mxCell id="Vv4WrIztTl1SW7AeAIIx-124" value="10" style="shape=partialRectangle;html=1;whiteSpace=wrap;connectable=0;fillColor=none;top=0;left=0;bottom=0;right=0;overflow=hidden;" vertex="1" parent="Vv4WrIztTl1SW7AeAIIx-121">
          <mxGeometry x="212" width="106" height="40" as="geometry">
            <mxRectangle width="106" height="40" as="alternateBounds" />
          </mxGeometry>
        </mxCell>
        <mxCell id="Vv4WrIztTl1SW7AeAIIx-125" value="99.99" style="shape=partialRectangle;html=1;whiteSpace=wrap;connectable=0;fillColor=none;top=0;left=0;bottom=0;right=0;overflow=hidden;" vertex="1" parent="Vv4WrIztTl1SW7AeAIIx-121">
          <mxGeometry x="318" width="106" height="40" as="geometry">
            <mxRectangle width="106" height="40" as="alternateBounds" />
          </mxGeometry>
        </mxCell>
        <mxCell id="Vv4WrIztTl1SW7AeAIIx-126" value="张三的歌" style="shape=partialRectangle;html=1;whiteSpace=wrap;connectable=0;fillColor=none;top=0;left=0;bottom=0;right=0;overflow=hidden;" vertex="1" parent="Vv4WrIztTl1SW7AeAIIx-121">
          <mxGeometry x="424" width="106" height="40" as="geometry">
            <mxRectangle width="106" height="40" as="alternateBounds" />
          </mxGeometry>
        </mxCell>
        <mxCell id="Vv4WrIztTl1SW7AeAIIx-152" value="自定义上传1" style="shape=partialRectangle;html=1;whiteSpace=wrap;connectable=0;fillColor=none;top=0;left=0;bottom=0;right=0;overflow=hidden;" vertex="1" parent="Vv4WrIztTl1SW7AeAIIx-121">
          <mxGeometry x="530" width="106" height="40" as="geometry">
            <mxRectangle width="106" height="40" as="alternateBounds" />
          </mxGeometry>
        </mxCell>
        <mxCell id="Vv4WrIztTl1SW7AeAIIx-127" value="" style="shape=tableRow;horizontal=0;startSize=0;swimlaneHead=0;swimlaneBody=0;top=0;left=0;bottom=0;right=0;collapsible=0;dropTarget=0;fillColor=none;points=[[0,0.5],[1,0.5]];portConstraint=eastwest;" vertex="1" parent="Vv4WrIztTl1SW7AeAIIx-114">
          <mxGeometry y="110" width="636" height="40" as="geometry" />
        </mxCell>
        <mxCell id="Vv4WrIztTl1SW7AeAIIx-128" value="李四" style="shape=partialRectangle;html=1;whiteSpace=wrap;connectable=0;fillColor=none;top=0;left=0;bottom=0;right=0;overflow=hidden;" vertex="1" parent="Vv4WrIztTl1SW7AeAIIx-127">
          <mxGeometry width="106" height="40" as="geometry">
            <mxRectangle width="106" height="40" as="alternateBounds" />
          </mxGeometry>
        </mxCell>
        <mxCell id="Vv4WrIztTl1SW7AeAIIx-129" value="A001" style="shape=partialRectangle;html=1;whiteSpace=wrap;connectable=0;fillColor=none;top=0;left=0;bottom=0;right=0;overflow=hidden;" vertex="1" parent="Vv4WrIztTl1SW7AeAIIx-127">
          <mxGeometry x="106" width="106" height="40" as="geometry">
            <mxRectangle width="106" height="40" as="alternateBounds" />
          </mxGeometry>
        </mxCell>
        <mxCell id="Vv4WrIztTl1SW7AeAIIx-130" value="1" style="shape=partialRectangle;html=1;whiteSpace=wrap;connectable=0;fillColor=none;top=0;left=0;bottom=0;right=0;overflow=hidden;" vertex="1" parent="Vv4WrIztTl1SW7AeAIIx-127">
          <mxGeometry x="212" width="106" height="40" as="geometry">
            <mxRectangle width="106" height="40" as="alternateBounds" />
          </mxGeometry>
        </mxCell>
        <mxCell id="Vv4WrIztTl1SW7AeAIIx-131" value="128.99" style="shape=partialRectangle;html=1;whiteSpace=wrap;connectable=0;fillColor=none;top=0;left=0;bottom=0;right=0;overflow=hidden;" vertex="1" parent="Vv4WrIztTl1SW7AeAIIx-127">
          <mxGeometry x="318" width="106" height="40" as="geometry">
            <mxRectangle width="106" height="40" as="alternateBounds" />
          </mxGeometry>
        </mxCell>
        <mxCell id="Vv4WrIztTl1SW7AeAIIx-132" value="张三的形象" style="shape=partialRectangle;html=1;whiteSpace=wrap;connectable=0;fillColor=none;top=0;left=0;bottom=0;right=0;overflow=hidden;" vertex="1" parent="Vv4WrIztTl1SW7AeAIIx-127">
          <mxGeometry x="424" width="106" height="40" as="geometry">
            <mxRectangle width="106" height="40" as="alternateBounds" />
          </mxGeometry>
        </mxCell>
        <mxCell id="Vv4WrIztTl1SW7AeAIIx-153" value="&lt;span style=&quot;&quot;&gt;自定义上传2&lt;/span&gt;" style="shape=partialRectangle;html=1;whiteSpace=wrap;connectable=0;fillColor=none;top=0;left=0;bottom=0;right=0;overflow=hidden;" vertex="1" parent="Vv4WrIztTl1SW7AeAIIx-127">
          <mxGeometry x="530" width="106" height="40" as="geometry">
            <mxRectangle width="106" height="40" as="alternateBounds" />
          </mxGeometry>
        </mxCell>
        <mxCell id="Vv4WrIztTl1SW7AeAIIx-133" value="" style="shape=tableRow;horizontal=0;startSize=0;swimlaneHead=0;swimlaneBody=0;top=0;left=0;bottom=0;right=0;collapsible=0;dropTarget=0;fillColor=none;points=[[0,0.5],[1,0.5]];portConstraint=eastwest;" vertex="1" parent="Vv4WrIztTl1SW7AeAIIx-114">
          <mxGeometry y="150" width="636" height="40" as="geometry" />
        </mxCell>
        <mxCell id="Vv4WrIztTl1SW7AeAIIx-134" value="&lt;span style=&quot;&quot;&gt;王五&lt;/span&gt;" style="shape=partialRectangle;html=1;whiteSpace=wrap;connectable=0;fillColor=none;top=0;left=0;bottom=0;right=0;overflow=hidden;" vertex="1" parent="Vv4WrIztTl1SW7AeAIIx-133">
          <mxGeometry width="106" height="40" as="geometry">
            <mxRectangle width="106" height="40" as="alternateBounds" />
          </mxGeometry>
        </mxCell>
        <mxCell id="Vv4WrIztTl1SW7AeAIIx-135" value="A002" style="shape=partialRectangle;html=1;whiteSpace=wrap;connectable=0;fillColor=none;top=0;left=0;bottom=0;right=0;overflow=hidden;" vertex="1" parent="Vv4WrIztTl1SW7AeAIIx-133">
          <mxGeometry x="106" width="106" height="40" as="geometry">
            <mxRectangle width="106" height="40" as="alternateBounds" />
          </mxGeometry>
        </mxCell>
        <mxCell id="Vv4WrIztTl1SW7AeAIIx-136" value="&lt;span style=&quot;&quot;&gt;1&lt;/span&gt;" style="shape=partialRectangle;html=1;whiteSpace=wrap;connectable=0;fillColor=none;top=0;left=0;bottom=0;right=0;overflow=hidden;" vertex="1" parent="Vv4WrIztTl1SW7AeAIIx-133">
          <mxGeometry x="212" width="106" height="40" as="geometry">
            <mxRectangle width="106" height="40" as="alternateBounds" />
          </mxGeometry>
        </mxCell>
        <mxCell id="Vv4WrIztTl1SW7AeAIIx-137" value="128.99" style="shape=partialRectangle;html=1;whiteSpace=wrap;connectable=0;fillColor=none;top=0;left=0;bottom=0;right=0;overflow=hidden;" vertex="1" parent="Vv4WrIztTl1SW7AeAIIx-133">
          <mxGeometry x="318" width="106" height="40" as="geometry">
            <mxRectangle width="106" height="40" as="alternateBounds" />
          </mxGeometry>
        </mxCell>
        <mxCell id="Vv4WrIztTl1SW7AeAIIx-138" value="张三的形象" style="shape=partialRectangle;html=1;whiteSpace=wrap;connectable=0;fillColor=none;top=0;left=0;bottom=0;right=0;overflow=hidden;" vertex="1" parent="Vv4WrIztTl1SW7AeAIIx-133">
          <mxGeometry x="424" width="106" height="40" as="geometry">
            <mxRectangle width="106" height="40" as="alternateBounds" />
          </mxGeometry>
        </mxCell>
        <mxCell id="Vv4WrIztTl1SW7AeAIIx-154" value="&lt;span style=&quot;&quot;&gt;自定义上传3&lt;/span&gt;" style="shape=partialRectangle;html=1;whiteSpace=wrap;connectable=0;fillColor=none;top=0;left=0;bottom=0;right=0;overflow=hidden;" vertex="1" parent="Vv4WrIztTl1SW7AeAIIx-133">
          <mxGeometry x="530" width="106" height="40" as="geometry">
            <mxRectangle width="106" height="40" as="alternateBounds" />
          </mxGeometry>
        </mxCell>
        <mxCell id="Vv4WrIztTl1SW7AeAIIx-161" style="edgeStyle=orthogonalEdgeStyle;rounded=0;orthogonalLoop=1;jettySize=auto;html=1;exitX=1;exitY=0.5;exitDx=0;exitDy=0;entryX=0;entryY=0.5;entryDx=0;entryDy=0;" edge="1" parent="1" source="Vv4WrIztTl1SW7AeAIIx-155" target="Vv4WrIztTl1SW7AeAIIx-158">
          <mxGeometry relative="1" as="geometry" />
        </mxCell>
        <mxCell id="Vv4WrIztTl1SW7AeAIIx-163" style="edgeStyle=orthogonalEdgeStyle;rounded=0;orthogonalLoop=1;jettySize=auto;html=1;exitX=1;exitY=0.5;exitDx=0;exitDy=0;entryX=0;entryY=0.5;entryDx=0;entryDy=0;" edge="1" parent="1" source="Vv4WrIztTl1SW7AeAIIx-155" target="Vv4WrIztTl1SW7AeAIIx-159">
          <mxGeometry relative="1" as="geometry" />
        </mxCell>
        <mxCell id="Vv4WrIztTl1SW7AeAIIx-155" value="流转包" style="rounded=0;whiteSpace=wrap;html=1;" vertex="1" parent="1">
          <mxGeometry x="-320" y="840" width="80" height="40" as="geometry" />
        </mxCell>
        <mxCell id="Vv4WrIztTl1SW7AeAIIx-167" style="edgeStyle=orthogonalEdgeStyle;rounded=0;orthogonalLoop=1;jettySize=auto;html=1;exitX=1;exitY=0.5;exitDx=0;exitDy=0;" edge="1" parent="1" source="Vv4WrIztTl1SW7AeAIIx-158" target="Vv4WrIztTl1SW7AeAIIx-164">
          <mxGeometry relative="1" as="geometry" />
        </mxCell>
        <mxCell id="Vv4WrIztTl1SW7AeAIIx-173" style="edgeStyle=orthogonalEdgeStyle;rounded=0;orthogonalLoop=1;jettySize=auto;html=1;exitX=1;exitY=0.5;exitDx=0;exitDy=0;entryX=0;entryY=0.5;entryDx=0;entryDy=0;" edge="1" parent="1" source="Vv4WrIztTl1SW7AeAIIx-158" target="Vv4WrIztTl1SW7AeAIIx-172">
          <mxGeometry relative="1" as="geometry" />
        </mxCell>
        <mxCell id="Vv4WrIztTl1SW7AeAIIx-158" value="大" style="rounded=0;whiteSpace=wrap;html=1;" vertex="1" parent="1">
          <mxGeometry x="-162" y="760" width="80" height="40" as="geometry" />
        </mxCell>
        <mxCell id="Vv4WrIztTl1SW7AeAIIx-169" style="edgeStyle=orthogonalEdgeStyle;rounded=0;orthogonalLoop=1;jettySize=auto;html=1;exitX=1;exitY=0.5;exitDx=0;exitDy=0;" edge="1" parent="1" source="Vv4WrIztTl1SW7AeAIIx-159" target="Vv4WrIztTl1SW7AeAIIx-166">
          <mxGeometry relative="1" as="geometry" />
        </mxCell>
        <mxCell id="Vv4WrIztTl1SW7AeAIIx-171" style="edgeStyle=orthogonalEdgeStyle;rounded=0;orthogonalLoop=1;jettySize=auto;html=1;exitX=1;exitY=0.5;exitDx=0;exitDy=0;entryX=0;entryY=0.5;entryDx=0;entryDy=0;" edge="1" parent="1" source="Vv4WrIztTl1SW7AeAIIx-159" target="Vv4WrIztTl1SW7AeAIIx-170">
          <mxGeometry relative="1" as="geometry" />
        </mxCell>
        <mxCell id="Vv4WrIztTl1SW7AeAIIx-159" value="小" style="rounded=0;whiteSpace=wrap;html=1;" vertex="1" parent="1">
          <mxGeometry x="-162" y="920" width="80" height="40" as="geometry" />
        </mxCell>
        <mxCell id="Vv4WrIztTl1SW7AeAIIx-168" style="edgeStyle=orthogonalEdgeStyle;rounded=0;orthogonalLoop=1;jettySize=auto;html=1;exitX=1;exitY=0.5;exitDx=0;exitDy=0;" edge="1" parent="1" source="Vv4WrIztTl1SW7AeAIIx-160" target="Vv4WrIztTl1SW7AeAIIx-165">
          <mxGeometry relative="1" as="geometry" />
        </mxCell>
        <mxCell id="Vv4WrIztTl1SW7AeAIIx-160" value="中" style="rounded=0;whiteSpace=wrap;html=1;" vertex="1" parent="1">
          <mxGeometry x="-162" y="840" width="80" height="40" as="geometry" />
        </mxCell>
        <mxCell id="Vv4WrIztTl1SW7AeAIIx-164" value="金毛" style="rounded=0;whiteSpace=wrap;html=1;" vertex="1" parent="1">
          <mxGeometry y="760" width="80" height="40" as="geometry" />
        </mxCell>
        <mxCell id="Vv4WrIztTl1SW7AeAIIx-165" value="狼狗" style="rounded=0;whiteSpace=wrap;html=1;" vertex="1" parent="1">
          <mxGeometry y="840" width="80" height="40" as="geometry" />
        </mxCell>
        <mxCell id="Vv4WrIztTl1SW7AeAIIx-166" value="吉娃娃" style="rounded=0;whiteSpace=wrap;html=1;" vertex="1" parent="1">
          <mxGeometry y="920" width="80" height="40" as="geometry" />
        </mxCell>
        <mxCell id="Vv4WrIztTl1SW7AeAIIx-170" value="吉娃娃" style="rounded=0;whiteSpace=wrap;html=1;" vertex="1" parent="1">
          <mxGeometry y="1000" width="80" height="40" as="geometry" />
        </mxCell>
        <mxCell id="Vv4WrIztTl1SW7AeAIIx-172" value="金毛" style="rounded=0;whiteSpace=wrap;html=1;" vertex="1" parent="1">
          <mxGeometry y="680" width="80" height="40" as="geometry" />
        </mxCell>
        <mxCell id="Vv4WrIztTl1SW7AeAIIx-174" style="edgeStyle=orthogonalEdgeStyle;rounded=0;orthogonalLoop=1;jettySize=auto;html=1;exitX=1;exitY=0.5;exitDx=0;exitDy=0;entryX=0;entryY=0.5;entryDx=0;entryDy=0;" edge="1" parent="1" source="Vv4WrIztTl1SW7AeAIIx-176" target="Vv4WrIztTl1SW7AeAIIx-179">
          <mxGeometry relative="1" as="geometry" />
        </mxCell>
        <mxCell id="Vv4WrIztTl1SW7AeAIIx-175" style="edgeStyle=orthogonalEdgeStyle;rounded=0;orthogonalLoop=1;jettySize=auto;html=1;exitX=1;exitY=0.5;exitDx=0;exitDy=0;entryX=0;entryY=0.5;entryDx=0;entryDy=0;" edge="1" parent="1" source="Vv4WrIztTl1SW7AeAIIx-176" target="Vv4WrIztTl1SW7AeAIIx-182">
          <mxGeometry relative="1" as="geometry" />
        </mxCell>
        <mxCell id="Vv4WrIztTl1SW7AeAIIx-176" value="最终包" style="rounded=0;whiteSpace=wrap;html=1;" vertex="1" parent="1">
          <mxGeometry x="160" y="840" width="80" height="40" as="geometry" />
        </mxCell>
        <mxCell id="Vv4WrIztTl1SW7AeAIIx-177" style="edgeStyle=orthogonalEdgeStyle;rounded=0;orthogonalLoop=1;jettySize=auto;html=1;exitX=1;exitY=0.5;exitDx=0;exitDy=0;" edge="1" parent="1" source="Vv4WrIztTl1SW7AeAIIx-179" target="Vv4WrIztTl1SW7AeAIIx-185">
          <mxGeometry relative="1" as="geometry" />
        </mxCell>
        <mxCell id="Vv4WrIztTl1SW7AeAIIx-178" style="edgeStyle=orthogonalEdgeStyle;rounded=0;orthogonalLoop=1;jettySize=auto;html=1;exitX=1;exitY=0.5;exitDx=0;exitDy=0;entryX=0;entryY=0.5;entryDx=0;entryDy=0;" edge="1" parent="1" source="Vv4WrIztTl1SW7AeAIIx-179" target="Vv4WrIztTl1SW7AeAIIx-189">
          <mxGeometry relative="1" as="geometry" />
        </mxCell>
        <mxCell id="Vv4WrIztTl1SW7AeAIIx-179" value="大" style="rounded=0;whiteSpace=wrap;html=1;" vertex="1" parent="1">
          <mxGeometry x="318" y="760" width="80" height="40" as="geometry" />
        </mxCell>
        <mxCell id="Vv4WrIztTl1SW7AeAIIx-180" style="edgeStyle=orthogonalEdgeStyle;rounded=0;orthogonalLoop=1;jettySize=auto;html=1;exitX=1;exitY=0.5;exitDx=0;exitDy=0;" edge="1" parent="1" source="Vv4WrIztTl1SW7AeAIIx-182" target="Vv4WrIztTl1SW7AeAIIx-187">
          <mxGeometry relative="1" as="geometry" />
        </mxCell>
        <mxCell id="Vv4WrIztTl1SW7AeAIIx-181" style="edgeStyle=orthogonalEdgeStyle;rounded=0;orthogonalLoop=1;jettySize=auto;html=1;exitX=1;exitY=0.5;exitDx=0;exitDy=0;entryX=0;entryY=0.5;entryDx=0;entryDy=0;" edge="1" parent="1" source="Vv4WrIztTl1SW7AeAIIx-182" target="Vv4WrIztTl1SW7AeAIIx-188">
          <mxGeometry relative="1" as="geometry" />
        </mxCell>
        <mxCell id="Vv4WrIztTl1SW7AeAIIx-182" value="小" style="rounded=0;whiteSpace=wrap;html=1;" vertex="1" parent="1">
          <mxGeometry x="318" y="920" width="80" height="40" as="geometry" />
        </mxCell>
        <mxCell id="Vv4WrIztTl1SW7AeAIIx-183" style="edgeStyle=orthogonalEdgeStyle;rounded=0;orthogonalLoop=1;jettySize=auto;html=1;exitX=1;exitY=0.5;exitDx=0;exitDy=0;" edge="1" parent="1" source="Vv4WrIztTl1SW7AeAIIx-184" target="Vv4WrIztTl1SW7AeAIIx-186">
          <mxGeometry relative="1" as="geometry" />
        </mxCell>
        <mxCell id="Vv4WrIztTl1SW7AeAIIx-184" value="中" style="rounded=0;whiteSpace=wrap;html=1;" vertex="1" parent="1">
          <mxGeometry x="318" y="840" width="80" height="40" as="geometry" />
        </mxCell>
        <mxCell id="Vv4WrIztTl1SW7AeAIIx-185" value="金毛" style="rounded=0;whiteSpace=wrap;html=1;" vertex="1" parent="1">
          <mxGeometry x="480" y="760" width="80" height="40" as="geometry" />
        </mxCell>
        <mxCell id="Vv4WrIztTl1SW7AeAIIx-186" value="狼狗" style="rounded=0;whiteSpace=wrap;html=1;" vertex="1" parent="1">
          <mxGeometry x="480" y="840" width="80" height="40" as="geometry" />
        </mxCell>
        <mxCell id="Vv4WrIztTl1SW7AeAIIx-187" value="吉娃娃" style="rounded=0;whiteSpace=wrap;html=1;" vertex="1" parent="1">
          <mxGeometry x="480" y="920" width="80" height="40" as="geometry" />
        </mxCell>
        <mxCell id="Vv4WrIztTl1SW7AeAIIx-188" value="吉娃娃" style="rounded=0;whiteSpace=wrap;html=1;" vertex="1" parent="1">
          <mxGeometry x="480" y="1000" width="80" height="40" as="geometry" />
        </mxCell>
        <mxCell id="Vv4WrIztTl1SW7AeAIIx-189" value="金毛" style="rounded=0;whiteSpace=wrap;html=1;" vertex="1" parent="1">
          <mxGeometry x="480" y="680" width="80" height="40" as="geometry" />
        </mxCell>
        <mxCell id="Vv4WrIztTl1SW7AeAIIx-190" value="捐增的钱要上链" style="text;strokeColor=none;fillColor=none;align=left;verticalAlign=middle;spacingLeft=4;spacingRight=4;overflow=hidden;points=[[0,0.5],[1,0.5]];portConstraint=eastwest;rotatable=0;" vertex="1" parent="1">
          <mxGeometry x="-280" y="1100" width="170" height="30" as="geometry" />
        </mxCell>
      </root>
    </mxGraphModel>
  </diagram>
</mxfile>
